{"title":"Laal Rang (2016) x264 DvDRip AC3 5.1 ESub -DDR","uid":15938211,"size":1581808469,"categoryP":"video","categoryS":"movies","magnet":"?xt=urn:btih:86f574f1dabaa714bc35be21e0ca778e1cf2e59b&amp;dn=Laal+Rang+%282016%29+x264+DvDRip+AC3+5.1+ESub+-DDR&amp;tr=udp%3A%2F%2Ftracker.leechers-paradise.org%3A6969&amp;tr=udp%3A%2F%2Fzer0day.ch%3A1337&amp;tr=udp%3A%2F%2Fopen.demonii.com%3A1337&amp;tr=udp%3A%2F%2Ftracker.coppersurfer.tk%3A6969&amp;tr=udp%3A%2F%2Fexodus.desync.com%3A6969","seeders":25,"leechers":16,"uploader":"SaM","files":3,"time":1475424370,"description":"** 2016**\r\n\r\n** 1/3 / DVDrip / x264\r\n\r\nHindi Untouched AC3 5.1 **\r\n\r\n** English Subtitle(s) **\r\n\r\n\r\n\r\n[ SCREENS ]\r\n \nhttps://extraimago.com/image/w0nt \nhttps://extraimago.com/image/w0no \nhttps://extraimago.com/image/w0nk \nhttps://extraimago.com/image/w0nH \nhttps://extraimago.com/image/w0nF \nhttps://extraimago.com/image/w0nD \nhttps://extraimago.com/image/w0n5 \nhttps://extraimago.com/image/w0ng \nhttps://extraimago.com/image/w0nX \nhttps://extraimago.com/image/w0nP \nhttps://extraimago.com/image/w0nG \nhttps://extraimago.com/image/w0nr \nhttps://extraimago.com/image/w0np \nhttps://extraimago.com/image/w0nY\r\n\r\n[ Info ]\r\n\r\nSource : DVD9 @ DDR\r\nGeneral\r\nFormat : Matroska\r\nFile size : 1.46 GiB\r\nDuration : 2 h 29 min\r\nOverall bit rate : 1 397 kb/s\r\nEncoded date : UTC 2016-10-01 18:49:40\r\nVideo\r\nID : 1\r\nFormat : AVC\r\nFormat/Info : Advanced Video Codec\r\nFormat profile :   \r\nFormat settings, CABAC : Yes\r\nFormat settings, ReFrames : 16 frames\r\nCodec ID : V_MPEG4/ISO/AVC\r\nDuration : 2 h 29 min\r\nBit rate : 1 009 kb/s\r\nWidth : 720 pixels\r\nHeight : 304 pixels\r\nDisplay aspect ratio : 2.35:1\r\nFrame rate mode : Constant\r\nFrame rate : 23.976 (24000/1001) FPS\r\nColor space : YUV\r\nChroma subsampling : 4:2:0\r\nBit depth : 8 bits\r\nScan type : Progressive\r\nBits/(Pixel*Frame) : 0.192\r\nStream size : 1.06 GiB (72%)\r\nDefault : Yes\r\nForced : No\r\nColor range : Limited\r\nColor primaries : BT.601 NTSC\r\nTransfer characteristics : BT.470 System B, BT.470 System G\r\nMatrix coefficients : BT.601\r\n\r\nAudio\r\nID : 2\r\nFormat : AC-3\r\nFormat/Info : Audio Coding 3\r\nMode extension : CM (complete main)\r\nFormat settings, Endianness : Big\r\nCodec ID : A_AC3\r\nDuration : 2 h 29 min\r\nBit rate mode : Constant\r\nBit rate : 384 kb/s\r\nChannel(s) : 6 channels\r\nChannel positions : Front: L C R, Side: L R, LFE\r\nSampling rate : 48.0 kHz\r\nFrame rate : 31.250 FPS (1536 spf)\r\nCompression mode : Lossy\r\nStream size : 412 MiB (27%)\r\nLanguage : Hindi\r\nDefault : Yes\r\nForced : No\r\n\r\nChapters : YES","torrent":{"xt":"urn:btih:86f574f1dabaa714bc35be21e0ca778e1cf2e59b","amp;dn":"Laal+Rang+%282016%29+x264+DvDRip+AC3+5.1+ESub+-DDR","amp;tr":["udp%3A%2F%2Ftracker.leechers-paradise.org%3A6969","udp%3A%2F%2Fzer0day.ch%3A1337","udp%3A%2F%2Fopen.demonii.com%3A1337","udp%3A%2F%2Ftracker.coppersurfer.tk%3A6969","udp%3A%2F%2Fexodus.desync.com%3A6969"],"infoHash":"86f574f1dabaa714bc35be21e0ca778e1cf2e59b","infoHashBuffer":{"type":"Buffer","data":[134,245,116,241,218,186,167,20,188,53,190,33,224,202,119,142,28,242,229,155]},"announce":[],"urlList":[]}}